<?xml version="1.0" encoding="utf-8"?>
<!-- Generator: Adobe Illustrator 21.1.0, SVG Export Plug-In . SVG Version: 6.00 Build 0)  -->
<svg version="1.1" id="圖層_1" xmlns="http://www.w3.org/2000/svg" xmlns:xlink="http://www.w3.org/1999/xlink" x="0px" y="0px"
	 viewBox="0 0 141.7 39.9" style="enable-background:new 0 0 141.7 39.9;" xml:space="preserve">
<style type="text/css">
	.st0{fill:#5FB6E0;}
	.st1{fill:url(#SVGID_1_);}
</style>
<g>
	<g>
		<path class="st0" d="M37.2,33.9c0.1,0.9-0.1,1.6-0.5,2.1c-1.3,1.6-5,1.1-9.6-1.1c-3.4-1.6-7.3-4.1-11.1-7.2
			c-4-3.2-7.2-6.6-9.5-9.6c-3-4-4.2-7.4-2.9-9c0.4-0.5,1.1-0.8,1.9-0.9C3.1,7.7,1.4,7.9,0.6,9c-1.7,2.1,0.4,6.7,4.8,12
			c0,0.2-0.1,0.4-0.1,0.6c-1.2,7.5,3.9,14.5,11.4,15.7c2.7,0.4,5.3,0,7.6-1c6.2,3.4,11.3,4.5,13,2.4C38.2,37.7,38.1,36,37.2,33.9z"
			/>
		
			<linearGradient id="SVGID_1_" gradientUnits="userSpaceOnUse" x1="-62.0572" y1="64.93" x2="-44.6061" y2="44.6642" gradientTransform="matrix(0.9876 0.1571 -0.1571 0.9876 90.1313 -30.4442)">
			<stop  offset="0" style="stop-color:#5AB26D"/>
			<stop  offset="0.995" style="stop-color:#F4CE40"/>
		</linearGradient>
		<path class="st1" d="M48.1,3.4c-0.6,0.7-1.5,1.1-2.4,1c-0.7-0.1-1.4-0.7-1.9-1.5c-0.9-1.4-2.3-2.5-4.1-2.8c-1.9-0.3-3.7,0.3-5,1.6
			c0.8-0.2,1.7-0.3,2.6-0.2c2.3,0.4,4.1,2.1,4.8,4.2c-1-1.6-2.6-2.8-4.6-3.1c-0.7-0.1-1.5-0.1-2.2,0c-0.3,0.1-0.7,0.1-1,0.3
			c-0.1,0-0.1,0.1-0.2,0.1c-0.2,0.1-0.3,0.3-0.4,0.5c0,0-0.1,0.2-0.1,0.2c0,0,0,0.1,0,0.1c0,0,0,0.1,0,0.1l-2.2,13.9
			c-1.9-3.9-5.6-6.8-10.2-7.5c-2.3-0.4-4.6-0.1-6.6,0.6c-0.4,0.1-0.7,0.3-1.1,0.4C11,12.3,9,13.9,7.6,16c0.1,0.1,0.1,0.2,0.2,0.3
			c2.3,3,5.5,6.4,9.5,9.6c3.9,3.1,7.7,5.6,11.1,7.2c0.1,0.1,0.3,0.1,0.4,0.2c1.7-1.8,3-4.1,3.5-6.7c0-0.1,0-0.1,0-0.2l0,0l0.1-0.4
			c0,0,0,0,0-0.1c0,0,0,0,0-0.1l0.1-0.5L35,9.6c0.7,0.9,1.7,1.6,2.8,2.1c0.6,0.2,1.2,0.4,1.8,0.5c4.1,0.6,7.9-2.1,8.6-6.2
			C48.3,5.2,48.3,4.3,48.1,3.4z"/>
	</g>
	<g>
		<path class="st0" d="M54,10.3h8.5c1.9,0,3.7,0.2,5.3,0.7c1.6,0.4,2.9,1.1,4,2.1c1.1,1,1.8,2.2,2.3,3.7c0.5,1.5,0.5,3.3,0.2,5.4
			c-0.3,1.7-0.8,3.2-1.6,4.6c-0.8,1.4-1.8,2.5-2.9,3.5c-1.2,1-2.5,1.7-4,2.2c-1.5,0.5-3.1,0.8-4.8,0.8H50.4L54,10.3z M59.8,26.4h0.5
			c0.7,0,1.3-0.1,2-0.2c0.6-0.2,1.2-0.4,1.7-0.8c0.5-0.4,0.9-0.8,1.2-1.3c0.3-0.5,0.6-1.2,0.7-1.9c0.3-1.6,0-2.8-0.7-3.5
			c-0.8-0.7-1.9-1.1-3.4-1.1h-0.5L59.8,26.4z"/>
		<g>
			<path class="st0" d="M77.4,34.3c0.3-0.1,0.8-0.1,1.2-0.1c0.8,0,1.4,0.2,1.8,0.6c0.4,0.4,0.6,0.9,0.6,1.6c0,0.7-0.2,1.3-0.6,1.7
				c-0.4,0.4-1.1,0.6-2,0.6c-0.4,0-0.7,0-1-0.1V34.3z M78,38.2c0.1,0,0.4,0,0.6,0c1.2,0,1.9-0.7,1.9-1.9c0-1-0.6-1.7-1.8-1.7
				c-0.3,0-0.5,0-0.7,0.1V38.2z"/>
			<path class="st0" d="M84.7,36.6H83v1.6h1.9v0.5h-2.5v-4.4h2.4v0.5H83v1.4h1.7V36.6z"/>
			<path class="st0" d="M88.5,36.6h-1.7v1.6h1.9v0.5h-2.5v-4.4h2.4v0.5h-1.8v1.4h1.7V36.6z"/>
			<path class="st0" d="M90.1,34.3c0.3,0,0.6-0.1,1.1-0.1c0.6,0,1,0.1,1.2,0.4c0.2,0.2,0.4,0.5,0.4,0.9c0,0.4-0.1,0.7-0.3,0.9
				c-0.3,0.3-0.8,0.5-1.4,0.5c-0.2,0-0.3,0-0.5,0v1.8h-0.6V34.3z M90.6,36.4c0.1,0,0.3,0,0.5,0c0.7,0,1.1-0.3,1.1-0.9
				c0-0.6-0.4-0.9-1-0.9c-0.2,0-0.4,0-0.5,0V36.4z"/>
			<path class="st0" d="M94.9,38.6l-1.1-4.4h0.6l0.5,2.2c0.1,0.6,0.2,1.1,0.3,1.5h0c0.1-0.4,0.2-1,0.4-1.5l0.6-2.2h0.6l0.5,2.2
				c0.1,0.5,0.2,1.1,0.3,1.5h0c0.1-0.5,0.2-1,0.4-1.5l0.6-2.2h0.6l-1.3,4.4h-0.6l-0.6-2.3c-0.1-0.6-0.2-1-0.3-1.4h0
				c-0.1,0.4-0.2,0.9-0.3,1.4l-0.6,2.3H94.9z"/>
			<path class="st0" d="M100.6,37.2l-0.5,1.4h-0.6l1.5-4.4h0.7l1.5,4.4h-0.6l-0.5-1.4H100.6z M102.1,36.8l-0.4-1.3
				c-0.1-0.3-0.2-0.6-0.2-0.8h0c-0.1,0.3-0.1,0.5-0.2,0.8l-0.4,1.3H102.1z"/>
			<path class="st0" d="M105.2,38.6l-1.5-4.4h0.6l0.7,2.2c0.2,0.6,0.3,1.1,0.5,1.7h0c0.1-0.5,0.3-1.1,0.5-1.6l0.7-2.2h0.6l-1.6,4.4
				H105.2z"/>
			<path class="st0" d="M110.7,36.6H109v1.6h1.9v0.5h-2.5v-4.4h2.4v0.5H109v1.4h1.7V36.6z"/>
			<path class="st0" d="M117.3,38.5c-0.2,0.1-0.6,0.2-1.2,0.2c-1.2,0-2.2-0.8-2.2-2.2c0-1.4,0.9-2.3,2.3-2.3c0.5,0,0.9,0.1,1.1,0.2
				l-0.1,0.5c-0.2-0.1-0.5-0.2-0.9-0.2c-1,0-1.7,0.7-1.7,1.8c0,1.1,0.6,1.8,1.7,1.8c0.4,0,0.7-0.1,0.9-0.2L117.3,38.5z"/>
			<path class="st0" d="M122.3,36.4c0,1.5-0.9,2.3-2.1,2.3c-1.2,0-2-0.9-2-2.3c0-1.4,0.9-2.3,2.1-2.3
				C121.5,34.1,122.3,35,122.3,36.4z M118.8,36.4c0,1,0.5,1.8,1.4,1.8c0.9,0,1.4-0.8,1.4-1.8c0-0.9-0.5-1.8-1.4-1.8
				S118.8,35.5,118.8,36.4z"/>
			<path class="st0" d="M123.2,38.3c0-0.2,0.2-0.4,0.4-0.4c0.2,0,0.4,0.2,0.4,0.4c0,0.2-0.2,0.4-0.4,0.4
				C123.4,38.7,123.2,38.5,123.2,38.3z"/>
			<path class="st0" d="M125,39.4c0.1-0.4,0.3-1.1,0.4-1.6l0.6-0.1c-0.2,0.6-0.4,1.3-0.6,1.6L125,39.4z"/>
			<path class="st0" d="M129.3,34.2h0.6v4h1.9v0.5h-2.5V34.2z"/>
			<path class="st0" d="M133.2,34.7h-1.3v-0.5h3.3v0.5h-1.4v3.9h-0.6V34.7z"/>
			<path class="st0" d="M136.3,34.3c0.3-0.1,0.8-0.1,1.2-0.1c0.8,0,1.4,0.2,1.8,0.6c0.4,0.4,0.6,0.9,0.6,1.6c0,0.7-0.2,1.3-0.6,1.7
				c-0.4,0.4-1.1,0.6-2,0.6c-0.4,0-0.7,0-1-0.1V34.3z M136.8,38.2c0.1,0,0.4,0,0.6,0c1.2,0,1.9-0.7,1.9-1.9c0-1-0.6-1.7-1.8-1.7
				c-0.3,0-0.5,0-0.7,0.1V38.2z"/>
		</g>
		<g>
			<path class="st0" d="M81.9,14l0.5,9.7h0.1c0.1-0.5,0.3-1,0.4-1.5c0.2-0.5,0.3-1,0.5-1.5l2.8-6.7h4.5l0.7,9.7h0.1
				c0.1-0.5,0.2-1,0.4-1.4c0.1-0.5,0.3-1,0.5-1.4l2.7-6.9h6.2l-8.3,16.3h-5.2l-0.5-8.9h-0.2c-0.1,0.4-0.2,0.8-0.3,1.2
				c-0.1,0.4-0.2,0.8-0.4,1.2l-2.7,6.4h-5L75.7,14H81.9z"/>
			<path class="st0" d="M102.2,30.3H96l8.2-16.2h6.5l3.2,16.2h-6.2l-0.2-2H103L102.2,30.3z M107.1,24.4l-0.2-2.9c0-0.3,0-0.7,0-1
				c0-0.4,0-0.7,0-1.1h-0.2l-1.9,5H107.1z"/>
			<path class="st0" d="M130.6,14l-8.9,16.2h-5L113,14h6.2l1,7.4c0.1,0.4,0.1,0.8,0.1,1.2c0,0.4,0,0.8-0.1,1.2h0.1
				c0.1-0.4,0.2-0.8,0.3-1.2c0.1-0.4,0.3-0.8,0.5-1.2l3.3-7.4H130.6z"/>
			<g>
				<path class="st0" d="M130.7,18.2c0,0,2.4-1.2,5.1,0S141,18,141,18l0.7-4.4c0,0-2.5,1.4-5.2,0.2s-5.1,0-5.1,0L130.7,18.2z"/>
				<path class="st0" d="M139.6,24.3l0.6-4c0,0-1.1,0.4-2,0.4c-0.8,0-1.8-0.3-2-0.4c-0.3-0.1-0.6-0.2-0.8-0.3c-2.7-1.2-5.1,0-5.1,0
					l-1.6,10.2h10.6l0.7-4.2H135l0.3-1.7H139.6z"/>
			</g>
		</g>
	</g>
</g>
</svg>
